# xmcd
#
# Track frame offsets: 
#        150
#        23579
#        48477
#        70320
#        86767
#        102373
#        121725
#        138617
#        156398
#        173934
#        190097
#        212183
#
# Disc length: 3053 seconds
#
# Revision: 0
# Processed by: cddbd v1.4PL0 Copyright (c) Steve Scherf et al.
# Submitted via: ExactAudioCopy v0.90b4
#
DISCID=aa0beb0c
DTITLE=Les Marvellous Pig Noise - Homesickness
DYEAR=1900
DGENRE=Blues
TTITLE0=Ma muse est le Blues
TTITLE1=Homesickness
TTITLE2=Cherche mon âme
TTITLE3=Come on in my kitchen
TTITLE4=Rockin' pneumonia
TTITLE5=I feel so good
TTITLE6=Sugar cane
TTITLE7=Mama's all night song
TTITLE8=Six strings down
TTITLE9=Diggin' my patatoes
TTITLE10=Parchman farm
TTITLE11=Stone cold in love
EXTD=
EXTT0=
EXTT1=
EXTT2=
EXTT3=
EXTT4=
EXTT5=
EXTT6=
EXTT7=
EXTT8=
EXTT9=
EXTT10=
EXTT11=
PLAYORDER=
